<?xml version="1.0" standalone="no"?>
<!DOCTYPE svg PUBLIC "-//W3C//DTD SVG 20010904//EN"
 "http://www.w3.org/TR/2001/REC-SVG-20010904/DTD/svg10.dtd">
<svg version="1.0" xmlns="http://www.w3.org/2000/svg"
 width="877.000000pt" height="877.000000pt" viewBox="0 0 877.000000 877.000000"
 preserveAspectRatio="xMidYMid meet">
<metadata>
Created by potrace 1.14, written by Peter Selinger 2001-2017
</metadata>
<g transform="translate(0.000000,877.000000) scale(0.100000,-0.100000)"
fill="#000000" stroke="none">
<path d="M7161 7514 c-59 -14 -63 -15 -161 -60 -124 -58 -245 -118 -271 -135
-14 -10 -37 -21 -52 -24 -15 -4 -27 -11 -27 -15 0 -5 -16 -14 -35 -20 -19 -6
-35 -16 -35 -21 0 -5 -5 -9 -11 -9 -6 0 -63 -32 -127 -71 -64 -38 -126 -76
-137 -82 -11 -7 -22 -15 -25 -18 -3 -3 -23 -18 -46 -32 -22 -14 -47 -31 -55
-39 -8 -7 -26 -19 -41 -27 -16 -8 -28 -18 -28 -23 0 -4 -6 -8 -14 -8 -8 0 -21
-8 -28 -18 -7 -9 -31 -30 -53 -46 -58 -43 -194 -159 -267 -228 -16 -16 -34
-28 -40 -28 -6 0 -9 -2 -7 -5 3 -2 -57 -69 -134 -147 -182 -188 -224 -233
-272 -293 -22 -27 -55 -66 -73 -85 -19 -19 -46 -51 -60 -70 -24 -32 -53 -66
-104 -121 -10 -10 -18 -24 -18 -30 0 -5 -4 -8 -10 -4 -5 3 -16 -7 -24 -22 -8
-15 -29 -45 -48 -65 -18 -21 -42 -49 -53 -63 -11 -14 -32 -40 -47 -58 -58 -69
-144 -175 -163 -201 -11 -15 -29 -38 -40 -50 -21 -24 -57 -68 -124 -153 l-41
-53 -43 17 c-23 9 -47 20 -52 24 -6 4 -23 10 -38 13 -15 3 -54 12 -85 22 -31
9 -61 17 -67 19 -5 1 -17 4 -25 8 -20 7 -99 26 -130 31 -14 3 -25 5 -25 6 0 1
-11 3 -25 6 -14 2 -36 7 -50 10 -14 4 -32 8 -40 9 -32 5 -107 15 -155 21 -27
3 -66 7 -85 10 -104 12 -302 12 -467 -1 -103 -8 -194 -17 -202 -20 -9 -2 -29
-7 -46 -10 -16 -3 -34 -7 -40 -9 -5 -1 -28 -7 -50 -11 -53 -12 -41 -8 -100
-31 -11 -4 -23 -8 -27 -9 -5 -2 -9 -3 -10 -5 -2 -1 -11 -3 -20 -6 -10 -2 -26
-6 -35 -8 -10 -3 -18 -5 -18 -6 0 -1 -7 -3 -15 -5 -8 -2 -26 -7 -40 -10 -67
-18 -63 -19 -99 47 -19 35 -56 98 -83 141 -26 43 -48 83 -48 88 0 5 -4 9 -9 9
-5 0 -14 14 -21 30 -7 17 -16 30 -21 30 -5 0 -9 5 -9 11 0 6 -29 54 -64 107
-35 53 -68 107 -74 119 -7 12 -18 27 -25 35 -7 7 -48 65 -92 128 -94 138 -187
264 -197 268 -5 2 -8 10 -8 18 0 8 -4 14 -9 14 -4 0 -29 26 -54 58 -48 61
-306 325 -390 400 -27 23 -79 63 -115 89 -37 26 -69 50 -72 53 -3 3 -32 23
-65 44 -33 21 -72 47 -87 57 -63 44 -347 189 -378 194 -3 0 -12 4 -20 10 -17
10 -205 79 -250 90 -3 1 -38 12 -79 24 -90 28 -140 32 -189 17 -39 -11 -108
-73 -110 -97 -1 -21 -7 -43 -13 -54 -5 -9 -5 -70 0 -70 1 0 4 -34 6 -75 5 -72
11 -130 15 -140 1 -3 2 -9 1 -14 -1 -4 5 -31 13 -60 8 -28 17 -62 19 -76 2
-14 7 -32 10 -40 3 -8 8 -28 11 -45 13 -79 119 -353 177 -458 6 -10 20 -37 32
-60 37 -71 160 -265 175 -277 4 -3 25 -32 47 -64 63 -94 200 -263 305 -377 14
-15 59 -64 100 -110 41 -46 89 -98 105 -115 191 -201 333 -348 444 -460 l134
-136 -21 -21 c-54 -55 -72 -77 -72 -87 0 -5 -4 -10 -9 -10 -12 0 -161 -221
-161 -238 0 -6 -6 -15 -13 -19 -7 -4 -34 -46 -61 -93 -27 -47 -52 -87 -55 -90
-3 -3 -19 -32 -35 -65 -16 -33 -36 -68 -44 -77 -8 -10 -12 -18 -7 -18 4 0 2
-7 -5 -15 -7 -8 -10 -15 -7 -15 4 0 -5 -23 -19 -50 -36 -72 -108 -323 -129
-450 -21 -121 -24 -144 -31 -240 -14 -182 -5 -395 20 -520 12 -57 70 -226 80
-232 6 -4 8 -8 4 -8 -7 0 19 -53 65 -130 12 -19 29 -41 39 -48 10 -7 18 -17
18 -23 0 -22 159 -185 249 -255 35 -27 75 -60 90 -73 14 -12 38 -29 53 -37 15
-8 47 -27 71 -44 25 -16 50 -30 56 -30 6 0 11 -3 11 -7 0 -5 19 -17 42 -28 24
-11 51 -28 61 -38 10 -10 22 -15 27 -12 6 4 10 2 10 -3 0 -6 12 -13 26 -16 14
-4 49 -18 77 -32 29 -14 86 -38 127 -53 41 -16 84 -32 95 -37 11 -4 22 -8 25
-9 3 -1 12 -4 20 -7 21 -8 112 -38 130 -42 61 -16 119 -29 140 -32 14 -2 35
-5 48 -8 49 -13 68 -17 92 -21 14 -2 43 -9 65 -15 41 -10 140 -27 210 -36 22
-3 56 -9 75 -14 47 -12 110 -20 255 -34 28 -3 77 -8 110 -11 33 -4 106 -7 162
-8 57 -1 103 -5 103 -10 0 -4 5 -5 12 -1 7 4 107 9 223 10 115 2 242 6 280 9
39 3 99 8 135 11 123 10 209 21 250 31 14 3 32 7 40 8 76 13 190 37 280 59
107 27 421 152 490 196 8 5 33 18 54 30 47 26 234 150 273 182 15 13 52 46 81
74 28 28 52 49 52 47 0 -5 31 27 62 65 l27 32 17 -29 c18 -30 61 -60 97 -67
12 -2 32 -6 45 -8 40 -9 112 21 148 60 19 20 34 40 34 45 0 8 41 102 100 224
21 44 44 96 51 117 10 29 17 35 33 32 115 -25 164 -7 238 87 16 18 50 62 78
96 27 34 50 66 50 70 0 4 14 23 30 42 42 47 73 88 117 152 80 116 128 178 140
179 6 0 20 -15 32 -32 11 -18 26 -42 33 -53 7 -11 16 -22 19 -25 3 -3 21 -27
39 -55 19 -27 37 -51 42 -53 4 -2 8 -8 8 -13 0 -6 18 -34 40 -64 22 -30 40
-57 40 -60 0 -3 5 -11 10 -18 6 -7 44 -59 85 -117 87 -122 126 -149 209 -146
66 2 94 19 191 111 44 42 123 116 175 163 52 48 118 110 146 137 28 28 97 93
154 145 56 52 128 120 159 150 32 30 90 84 130 120 110 98 154 143 173 172 15
23 20 38 32 97 5 28 -15 112 -39 160 -14 27 -25 54 -25 60 0 6 -4 11 -9 11 -5
0 -12 12 -15 26 -4 14 -18 43 -31 65 -14 21 -25 45 -25 53 0 8 -5 18 -11 22
-6 3 -17 21 -25 38 -8 17 -22 43 -32 58 -9 14 -35 56 -57 93 -22 37 -47 78
-55 90 -61 91 -104 151 -115 160 -6 6 -16 17 -21 26 -32 58 -260 294 -311 324
-18 11 -33 22 -33 26 0 4 -34 28 -75 54 -41 25 -81 52 -87 58 -13 13 -100 51
-140 62 -5 2 -9 3 -10 5 -2 1 -10 3 -18 5 -8 1 -35 8 -60 15 -108 29 -189 38
-244 27 -47 -10 -109 -60 -121 -97 -3 -11 -11 -20 -16 -20 -6 0 -8 -4 -5 -9 4
-5 3 -11 -1 -13 -5 -1 -21 -28 -37 -58 -75 -145 -156 -300 -180 -344 -14 -27
-26 -53 -26 -58 0 -6 -10 -24 -22 -41 -13 -17 -45 -74 -72 -127 -149 -288
-176 -340 -209 -397 -20 -35 -34 -63 -32 -63 5 0 -40 -84 -65 -120 -9 -14 -19
-31 -21 -38 -3 -8 -18 -1 -43 23 -21 19 -42 32 -47 29 -5 -3 -9 0 -9 6 0 6 -4
9 -9 6 -5 -4 -20 -2 -33 3 -15 5 -36 4 -61 -5 -20 -7 -41 -14 -45 -14 -14 -2
-64 -44 -74 -63 -9 -17 -66 -167 -72 -192 -8 -30 -25 -58 -26 -45 -1 8 -3 26
-5 40 -3 35 -33 145 -56 210 -10 30 -20 64 -22 75 -4 25 -38 116 -49 131 -5 7
-11 20 -13 30 -12 57 -47 133 -133 293 -29 53 -149 225 -184 262 -10 11 -18
22 -18 27 0 4 -13 22 -30 40 -16 18 -30 36 -30 39 0 3 -7 11 -17 18 -14 11
-10 17 33 51 27 21 67 55 89 75 22 20 67 60 100 89 84 75 217 203 289 279 34
35 86 91 118 123 31 32 54 58 52 58 -3 0 9 13 26 30 17 17 28 30 25 30 -3 0
12 18 34 40 22 22 37 40 34 40 -3 0 4 8 15 19 12 10 22 23 22 29 0 6 6 15 13
19 6 4 30 31 52 58 22 28 43 52 47 53 5 2 8 10 8 17 0 7 3 15 8 17 9 4 54 65
121 163 30 44 73 108 97 141 24 34 44 65 44 69 0 5 11 23 25 41 14 18 25 37
25 42 0 5 7 15 15 22 8 7 13 16 10 20 -3 5 -1 10 3 12 8 3 28 36 91 153 9 17
21 33 26 37 6 4 6 8 1 8 -5 0 -4 6 3 13 6 8 36 65 66 128 31 63 60 121 66 129
13 20 31 68 29 76 -1 4 2 10 7 13 9 6 63 114 63 125 0 3 11 29 24 58 13 29 31
78 41 108 10 30 20 60 24 65 3 6 6 13 7 18 1 4 3 9 4 12 1 3 3 8 5 13 1 4 5
14 8 22 9 22 48 142 52 160 2 8 17 62 34 120 28 95 30 110 20 155 -24 110
-126 167 -248 139z"/>
</g>
</svg>
